<mxfile host="app.diagrams.net" modified="2022-05-18T13:10:51.287Z" agent="5.0 (Windows NT 10.0; Win64; x64) AppleWebKit/537.36 (KHTML, like Gecko) Chrome/101.0.4951.41 Safari/537.36" etag="wM3XGmTDbMe1xl5kejc8" version="18.0.7" type="github">
  <diagram id="pEfU-hjouUw4J9pqlBvi" name="Page-1">
    <mxGraphModel dx="985" dy="610" grid="1" gridSize="10" guides="1" tooltips="1" connect="1" arrows="1" fold="1" page="1" pageScale="1" pageWidth="827" pageHeight="1169" math="0" shadow="0">
      <root>
        <mxCell id="0" />
        <mxCell id="1" parent="0" />
        <mxCell id="_ouRpaik_WKWbs45pR7r-1" value="浏览器:&lt;br&gt;xxoutman.cn" style="shape=process;whiteSpace=wrap;html=1;backgroundOutline=1;" vertex="1" parent="1">
          <mxGeometry x="294" y="340" width="120" height="60" as="geometry" />
        </mxCell>
        <mxCell id="_ouRpaik_WKWbs45pR7r-2" value="DNS本地服务" style="shape=cylinder3;whiteSpace=wrap;html=1;boundedLbl=1;backgroundOutline=1;size=15;" vertex="1" parent="1">
          <mxGeometry x="316" y="180" width="76" height="80" as="geometry" />
        </mxCell>
        <mxCell id="_ouRpaik_WKWbs45pR7r-3" value="" style="shape=flexArrow;endArrow=classic;html=1;rounded=0;entryX=0.5;entryY=1;entryDx=0;entryDy=0;entryPerimeter=0;" edge="1" parent="1" target="_ouRpaik_WKWbs45pR7r-2">
          <mxGeometry width="50" height="50" relative="1" as="geometry">
            <mxPoint x="350" y="340" as="sourcePoint" />
            <mxPoint x="400" y="290" as="targetPoint" />
          </mxGeometry>
        </mxCell>
        <mxCell id="_ouRpaik_WKWbs45pR7r-4" value="找ip地址" style="text;html=1;strokeColor=none;fillColor=none;align=center;verticalAlign=middle;whiteSpace=wrap;rounded=0;" vertex="1" parent="1">
          <mxGeometry x="360" y="290" width="60" height="30" as="geometry" />
        </mxCell>
        <mxCell id="_ouRpaik_WKWbs45pR7r-5" value="IP地址与域名的映射表" style="text;html=1;strokeColor=none;fillColor=none;align=center;verticalAlign=middle;whiteSpace=wrap;rounded=0;" vertex="1" parent="1">
          <mxGeometry x="291" y="150" width="126" height="30" as="geometry" />
        </mxCell>
        <mxCell id="_ouRpaik_WKWbs45pR7r-6" value="根服务器" style="ellipse;shape=cloud;whiteSpace=wrap;html=1;" vertex="1" parent="1">
          <mxGeometry x="10" y="160" width="120" height="80" as="geometry" />
        </mxCell>
        <mxCell id="_ouRpaik_WKWbs45pR7r-7" value="" style="shape=flexArrow;endArrow=classic;html=1;rounded=0;entryX=0.96;entryY=0.7;entryDx=0;entryDy=0;entryPerimeter=0;" edge="1" parent="1" target="_ouRpaik_WKWbs45pR7r-6">
          <mxGeometry width="50" height="50" relative="1" as="geometry">
            <mxPoint x="316" y="225" as="sourcePoint" />
            <mxPoint x="366" y="175" as="targetPoint" />
          </mxGeometry>
        </mxCell>
        <mxCell id="_ouRpaik_WKWbs45pR7r-8" value="www.google.com" style="text;html=1;strokeColor=none;fillColor=none;align=center;verticalAlign=middle;whiteSpace=wrap;rounded=0;" vertex="1" parent="1">
          <mxGeometry x="160" y="185" width="60" height="30" as="geometry" />
        </mxCell>
        <mxCell id="_ouRpaik_WKWbs45pR7r-9" value="域服务器" style="ellipse;shape=cloud;whiteSpace=wrap;html=1;" vertex="1" parent="1">
          <mxGeometry x="291" y="20" width="120" height="80" as="geometry" />
        </mxCell>
        <mxCell id="_ouRpaik_WKWbs45pR7r-10" value=".com .cn .net .org..." style="text;html=1;strokeColor=none;fillColor=none;align=center;verticalAlign=middle;whiteSpace=wrap;rounded=0;" vertex="1" parent="1">
          <mxGeometry x="400" y="45" width="126" height="30" as="geometry" />
        </mxCell>
        <mxCell id="_ouRpaik_WKWbs45pR7r-11" value=".&amp;nbsp;" style="text;html=1;strokeColor=none;fillColor=none;align=center;verticalAlign=middle;whiteSpace=wrap;rounded=0;" vertex="1" parent="1">
          <mxGeometry x="70" y="140" width="60" height="30" as="geometry" />
        </mxCell>
        <mxCell id="_ouRpaik_WKWbs45pR7r-12" value="" style="shape=flexArrow;endArrow=classic;html=1;rounded=0;entryX=0.55;entryY=0.95;entryDx=0;entryDy=0;entryPerimeter=0;" edge="1" parent="1" target="_ouRpaik_WKWbs45pR7r-9">
          <mxGeometry width="50" height="50" relative="1" as="geometry">
            <mxPoint x="350" y="180" as="sourcePoint" />
            <mxPoint x="400" y="130" as="targetPoint" />
          </mxGeometry>
        </mxCell>
        <mxCell id="_ouRpaik_WKWbs45pR7r-13" value="baidu.com" style="text;html=1;strokeColor=none;fillColor=none;align=center;verticalAlign=middle;whiteSpace=wrap;rounded=0;" vertex="1" parent="1">
          <mxGeometry x="360" y="110" width="60" height="30" as="geometry" />
        </mxCell>
        <mxCell id="_ouRpaik_WKWbs45pR7r-14" value="&lt;span style=&quot;&quot;&gt;xxoutman 子域名服务器&lt;/span&gt;" style="ellipse;shape=cloud;whiteSpace=wrap;html=1;" vertex="1" parent="1">
          <mxGeometry x="540" y="135" width="170" height="80" as="geometry" />
        </mxCell>
        <mxCell id="_ouRpaik_WKWbs45pR7r-16" value="" style="edgeStyle=orthogonalEdgeStyle;rounded=0;orthogonalLoop=1;jettySize=auto;html=1;entryX=1;entryY=0.5;entryDx=0;entryDy=0;entryPerimeter=0;" edge="1" parent="1" source="_ouRpaik_WKWbs45pR7r-15" target="_ouRpaik_WKWbs45pR7r-2">
          <mxGeometry relative="1" as="geometry">
            <Array as="points">
              <mxPoint x="670" y="210" />
              <mxPoint x="392" y="210" />
            </Array>
          </mxGeometry>
        </mxCell>
        <mxCell id="_ouRpaik_WKWbs45pR7r-15" value="150.158.21.251" style="text;html=1;strokeColor=none;fillColor=none;align=center;verticalAlign=middle;whiteSpace=wrap;rounded=0;" vertex="1" parent="1">
          <mxGeometry x="610" y="220" width="120" height="30" as="geometry" />
        </mxCell>
        <mxCell id="_ouRpaik_WKWbs45pR7r-17" value="" style="endArrow=classic;html=1;rounded=0;entryX=0.25;entryY=0;entryDx=0;entryDy=0;" edge="1" parent="1" target="_ouRpaik_WKWbs45pR7r-1">
          <mxGeometry width="50" height="50" relative="1" as="geometry">
            <mxPoint x="329" y="260" as="sourcePoint" />
            <mxPoint x="379" y="210" as="targetPoint" />
          </mxGeometry>
        </mxCell>
        <mxCell id="_ouRpaik_WKWbs45pR7r-18" value="缓存" style="text;html=1;strokeColor=none;fillColor=none;align=center;verticalAlign=middle;whiteSpace=wrap;rounded=0;" vertex="1" parent="1">
          <mxGeometry x="380" y="220" width="60" height="30" as="geometry" />
        </mxCell>
      </root>
    </mxGraphModel>
  </diagram>
</mxfile>
